<?xml version="1.0" encoding="utf-8"?>
<!-- Generator: Adobe Illustrator 22.0.1, SVG Export Plug-In . SVG Version: 6.00 Build 0)  -->
<svg version="1.1" xmlns="http://www.w3.org/2000/svg" xmlns:xlink="http://www.w3.org/1999/xlink" x="0px" y="0px"
	 viewBox="0 0 500 500" style="enable-background:new 0 0 500 500;" xml:space="preserve">
<style type="text/css">
	.st0{fill:none;}
	.st1{fill:#EDEDED;}
	.st2{fill:#F6F6F6;}
	.st3{fill:url(#XMLID_3_);}
	.st4{fill:#7416A8;}
	.st5{fill:#2C5EFB;}
	.st6{fill:#2FAD4C;}
	.st7{fill:#FCE22B;}
	.st8{fill:#F87316;}
	.st9{fill:#F7022D;}
</style>
<pattern  width="20.8" height="20.8" patternUnits="userSpaceOnUse" id="Unnamed_Pattern_3" viewBox="0 -20.8 20.8 20.8" style="overflow:visible;">
	<g id="XMLID_162_">
		<rect id="XMLID_17676_" y="-20.8" class="st0" width="20.8" height="20.8"/>
		<rect id="XMLID_17675_" y="-20.8" class="st1" width="10.4" height="10.4"/>
		<rect id="XMLID_17674_" x="10.4" y="-20.8" class="st2" width="10.4" height="10.4"/>
		<rect id="XMLID_17673_" y="-10.4" class="st2" width="10.4" height="10.4"/>
		<rect id="XMLID_17672_" x="10.4" y="-10.4" class="st1" width="10.4" height="10.4"/>
	</g>
</pattern>
<g id="Background">
	<pattern  id="XMLID_3_" xlink:href="#Unnamed_Pattern_3" patternTransform="matrix(1 0 0 1 -1.2912 -10.7099)">
	</pattern>
	<rect id="XMLID_163_" y="0" class="st3" width="500" height="500"/>
</g>
<g id="Elements">
	<g id="XMLID_813_">
		<g id="XMLID_453_">
			<g>
				<path id="XMLID_11_" class="st4" d="M1131.7,313.2c-7.2,0-15.3-0.8-21.7-0.8c-0.4-0.1,13.7-0.4,6.9-0.9
					c-6.7-0.5-31.2-0.2-39.8-0.3c-4.9-0.1-40.8-0.5-40.4-0.9c2-1.9,78.3,0.2,85.7-0.8c-8.7-0.9-25.2-0.6-37.7-0.6
					c0-1-6.9-0.2-12.6-0.6c1.8-0.1,2.6-0.2,2.4-0.4c-50.2,0-98.7-0.4-147.3-1c-22.5-0.3-32.1-2.2-57.5-2.8
					c-52.5-1-104.3-2-152.6-2.3c-26.5-0.2-55-0.6-79.3-0.4c-31.1,0.2-68.6,0.4-103.4,0.2c-23.2-0.1-50.3,0.3-76.1,0.3
					c-22.9,0-53.8,0-78.4,0.7c-11.1-1.1-27.1-0.1-36.5-0.1c-17.3,0-27.8-0.1-44.7,0.1c-23.2,0.3-53.2-0.3-76,0
					c-48.4,0.6-97.2-0.4-149.8,0.1c-16.3,0.1-38.7,0.5-61.9,0.7c-16.5,0.1-26.2,0.3-39.7,0.5c-15.4,0.2-31.6,0.3-46.9,0.6
					c-107.8,2-218.9,0.1-327.9,0.9c-24.4,0.2-48.3,0.2-71.9,0.5c-15.4,0.2-41.4,0.2-55.5,0.9c-28.5,1.4,0,2.9,11,4.5
					c-1.7,0.2-7.3,0.4-7.6,0.6c-2.1,1.4,5.9,0.3-4.2,1.2c-13.8,1.3-21.9,0.2-13.6,2.6c1,0.3,10.6,1.8,9.6,2.2
					c-0.9,0.3-8.6,0.8-8.3,0.7c-0.5,0.2-5.9,0.2-6.4,0.4c-3.8,0.8,6.2,1,7.5,1.5c2.8,1.1,2.4,1.1,5.1,2c0.5,0.2,8.8,2.2,8,2
					c2.1,0.4,12.5,1.4,12.4,1.7c-0.3,1.1,1.4,0.2-9.2,0.3c-9.7,0.2-25.3-1.2-33.6-0.1c-7.1,0.9,4.3,1.3,7.2,1.9
					c4.2,0.8,12.2,1.8,12.7,2.7c0.1,0.2-8.6,1.3-7.6,1.8c1.9,0.8,11.1,1,16.2,1.5c21.5,1.9,38.6,2.7,66.8,3
					c16.7,0.2,34.5,0.4,50.5,0.8c5.7,0.1,1.3,0.8,7.1,1c3.1,0.1,31.3,0,33.2,0c16.5-0.2,28.4-0.2,51.2,0c12.2,0.1,29.9,0.7,42.8,0.7
					c18.1,0.1,47.4-0.1,69.6,0c3.7,0,15.4-0.1,18.5,0c-0.7,0,13,0.6,9.5,0.6c-3.9,0,21.1,0,10.1-0.4c7.5,0.3,1.1-0.3,11.3,1
					c4.5-0.2,6.7-0.4,6.5-0.8c3.8,0,11.2,1,17.2,1c11.3,0,19.8-2.7,36.3-1.1c-6.1,0.5-14.1,0.8-7.7,1.6c2,0.3,24.2-0.3,27.8-0.2
					c21,0.3,27,2.2,29.1-0.2c0.3-0.4-16.7-0.1-4.6-0.9c8.9-0.6,6.7-0.3,13.6,0.5c9.7,1.1,2,1.2,14.4,1.5c1.1,0,16.1-0.3,21.2-0.2
					c-0.1,0,4.4,1,7,1c3.2,0,10.7-0.5,13.3-0.7c4.9-0.4-0.8-1.8,7.6-1.1c1.6,0.1-0.8,1.1-2.1,1c1.4,0.2,1,1.1,2.1,1.2
					c5.5,0,10.9,0,16.4,0c3.9-0.7,7.8-0.6,11.5,0.1c6.9,0,9.4,0.5,17.8-0.2C64,343,52,341.8,69,341.8c2.3,0.9-6.3,0.8,5.7,1.7
					c6.7,0.5,15.1,1.1,23.2,0.3c8.5,0.6,3.7,0.6,13.6,0.3c2.4-0.1,12.7-0.9,15.8-0.8c0,1.8,36.9,0.9,43.2,0.9
					c4.2,0,26.4,0.3,39.4,0.4c36,0.1,78.6-0.6,111.8-0.8c73.8-0.4,146.7-1.8,215.7-3.5c37.8-0.9,75.7-1.3,114.6-2
					c16.6-0.3,36.4-0.8,54.2-1c17.1-0.2,37.2-0.1,53.6-0.6c11.4-0.4,17.1-1,27.6-1.1c5.8-0.1,4.2,0,9.5-0.2
					c5.5-0.2,2.4,0.8,12.1,0.2c3.7-0.2-1.3-0.9,3.2-1c18.9-0.6,38.5-1.1,56.5-1.5c32.1-0.6,57.1-0.7,82.7-1.7c8.7-0.3,19.4,0,32-0.3
					c1.4,0,13.2-0.8,13.5-0.8c4-0.4-5.5-0.6-3.2-0.9c5.5-0.6,14-0.7,19.7,0.1c-2.5,0.1-3.3,0.4-2.5,0.6c30.6,0,5.9-0.3,8.1-0.7
					c6.8-1.3,25.5,1,15.6-1.3c-1.3-0.3-13.9,0.1-13.5-0.5c0.4-0.7,14.8-0.7,14.9-0.7c0,0-6.4-0.4-7.2-0.3c-0.6,0,10.2-0.4,12.7-0.5
					c-0.5,0,9.1,0.2,8.6,0.2c9-0.5-6.4-0.5-6.1-0.5c0-2.2,1-0.1,7.5-1.1c-18.1-2,46.5-0.6,43.3-1.6c0.7-0.3-24.8-0.5-26.8-0.5
					c-7.9-0.1-21.9,0-29.1-0.2c-5.6-0.2-2.8-0.9-7.4-1.2c-2.8-0.2-13-0.2-15.5-0.2c-0.8-0.3,55.3-1.6,63.5-2.7
					c9-1.3-2.7-0.7-1.7-1.2c2.2-1.1,6.5-0.3,16.6-1.4c-3.3-0.3-12.4,0.2-12.4-0.6c11.9,0,9.9-1.1,17.4-1.4c5.9-0.2,32.7,0.4,35.9,0
					C1134.1,313.5,1132.9,313.3,1131.7,313.2C1130.9,313.2,1132.9,313.3,1131.7,313.2z"/>
			</g>
		</g>
		<path id="XMLID_482_" class="st5" d="M1192.8,287.9c-4.1-0.4-16.3-0.8-22.6-1.2c-9.6-0.6-23.5-0.4-30-1c12.6-1.1,4.6-1.8-6.7-2.3
			c-8.5-0.4-18.8-0.1-27.5-0.5c-6.5-0.2-5.3-0.8-12.2-1c-7.5-0.2-36.8-0.1-39-0.9c-2.9-1.1,28.7-0.3,32.7-0.9
			c8.2-1.2-45.1-1.8-49.9-1.9c-15.3-0.2-32.9-0.3-48.2-0.6c-4.8-0.1-8.7-1.3-15.3-0.6c0.9,0.2,9.5,0.6,1.6,0.9
			c-2.2,0.1-26.3-0.2-28.2-0.4c-12.1-1.6,25.4-1.3,28.8-1.7c-9.4-0.7-17.6,0-24-0.2c-9.6-0.3-19.5-1.2-29.2-1.6
			c-24.3-1-51.3-1.2-79-1.9c-19.5-0.5-53.2-1.3-74.2-1.4c-3.2,0-13.5,0.4-15.4,0.4c-2.8,0-7.3-0.7-9.2-0.7
			c-16.6-0.3-36.1-0.2-49.8-0.2c-61.1,0-138.1-1.1-197.3-1.7c-25.5-0.2-43.3-1.1-71.7-1.1c-17.2,0-25.9-0.7-45.7-0.5
			c2.5,0-7.1,0.3-4.7,0.3c-10.6,0.1-18.8-0.4-29.8-0.5c-9.8-0.1-30.2-0.6-40.4-0.4c-8.4,0.1-5.3,0.9-17.6,1c-3.6,0-1.2-0.5-4.2-0.6
			c-5.1-0.1-12.3-0.1-18.7-0.1c-3.7,0-21.5,0.1-24.9,0.1c-0.1,0-9.5,0.5-8.4,0.5c-9.2,0.1-26-0.1-40.1,0.2c-5,0.1-8.1,0.5-13.8,0.6
			c-4.9,0-6.8-0.6-20.2-0.5c-8.1,0.1-29.2,0.3-36.7,0.6c-9.6,0.3-4.5,0.8-15.3,1c3-0.1-19.6-0.4-20.2-0.4c-20.2,0-41.7,0.9-62.6,0.9
			c-62.4,0.1-133.1-0.4-200.1-0.3c-69.3,0.1-137.8-0.1-201.5,2.3c-28.6,1.1-48.8,3.5-64.8,6.2c-12.1,2.1-27.4,2.7-48.6,3.7
			c-22,1-44.2,2-62.2,3.6c-4.3,0.4-3.1,1.3-7,1.5c-6.2,0.4-16.7,0-22.6,0.6c-16.3,1.5,6.2,2.1,6.3,3.7c-22.5,0-37.3,2-42.4,3.9
			c-6.2,2.4,0.3,3.1,7.5,5.1c8.9,2.5,3.9,4.6,36.4,3.9c4.7-0.1,10.5-0.5,13.6-0.5c18.6-0.3,23.5,3.1,40.1,3
			c30.4-0.1,64.7,0.4,96.3,0.2c8.4,0,18.3-0.1,28.9-0.3c17-0.3,19-0.1,35.5-0.1c18.4,0,37.2-0.4,56.6-0.6c9.5-0.1,6.8-0.5,19.5,0.8
			c5.7,0.6,14.6,1.8,20.7,2.1c23.4,1.2,67.4,0.2,90.1,0.1c41.3-0.1,80-2.9,119.8-3.2c75.3-0.6,142.3,0.7,212.2,1.9
			c131.2,2.1,276.1,2.4,403.1,1.3c40-0.4,82.2-0.5,121.4-1c6.8-0.1,16.8,0,21.3-0.3c5.1-0.4,0.4-1.3,8.7-1.5c4.3-0.1,7,1.1,6.3,1.1
			c5.3,0.2,10.2,0.2,16.5,0.3c8,0.2,27.6,0.2,33.2-0.3c5.3-0.5,1-1.8,4.8-2.1c13.1-1.3,13.7,0.5,16.4,0.9c4.2,0.5-12.8,2.8,22.6,1.5
			c-1,0,17-0.5,10.6-0.5c-1.9,0,0.6-0.6,3.5-0.5c1.3,0,11.5,0.8,14.7,0.9c5.8,0.2,26.1,0.2,31.6-0.2c11.6-0.7,6.9-1.4-4.9-1.4
			c-0.2-3,18.3,0.5,25.2,1.2c4.5,0.4,53,0.1,58.3-0.4c9.4-0.9-1-2,7.7-2.7c-3.4,0.3,16.9,0.6,17.4,0.6c5.9-0.1,9.3-0.6,15.5-0.8
			c3-0.1,11.7-0.1,15.7-0.2c1.5,0,2-0.5,3.6-0.6c6,0.6,28.3-0.1,35.4-0.6c7.1-0.5,5.6-1.3,14.1-2c5.7-0.5,17.7-0.4,24.9-0.5
			c7-0.2,26.8-0.7,30.7-1.2c16.3-2-30-0.4-8.5-2.9c9.7-1.1,20.1-0.5,28.2-0.7c1.9,0,13.3-0.8,17.9-0.9c6.3-0.1,30,0.8,23.6-0.9
			c-8.3-2.2-95.8-0.2-74.2-4.8c1.5-0.3-10.6-0.5-11.4-0.5c0.2,0,9.6-1.1,9.3-1c20.3-1.2,7.6-0.2,14.3,0.7c4.1,0.6-4.8,0.9,7.2,1
			c1.1,0,11.3,0,13.8-0.5c0.8-0.2-9.4-0.7-1.3-1.4c1.6-0.1,5.6,0.2,8.7,0.2c4.3-0.1,13.5,0.3,17.8,0.6c6.4,0.5,9,1.1,16.7,1.3
			C1183.4,289,1203.5,289,1192.8,287.9z"/>
		<g id="XMLID_458_">
			<g>
				<path id="XMLID_95_" class="st6" d="M1147.4,261.5c-35.3,0-77,0.2-116.1,0.2c0-0.5,8.7-1.1,11.9-1.3c4.8-0.4,12.9-0.3,18.9-1.4
					c1.8-0.3-5.1-0.8,0-1.4c3.1-0.4,8.2-0.4,10.6-0.6c3.1-0.3,32.5-2,8.3-2c1.6-0.9,31.9-0.4,30.8-1.3c-0.3-0.3-79.7-0.4-87.7-0.4
					c0-1,21.1,0,23.7-0.5c3.4-0.7-31.8-0.5-35.5-0.8c3.4-1.1,3.6,0.1-2.6-1.1c21-2.1,49.1-1,73.5-2.4c-7.5-0.7-33.8,0.3-43.5,0.4
					c-17.5,0.1-56,0.6-67.7-0.6c5.9-0.6,40.9-0.4,42.2-0.7c3-0.8-42.9,0.2-44.6-0.9c3.7,0.1,6-0.8,3.4-1c3.2,0.3-19.1,0-17.6-0.5
					c3.8,0.2,6.2,0.1,7.2-0.2c0.1-0.5-25.7-0.8-28.5-0.8c0-1.3,53.4-2,61.4-2.1c14.6-0.2,33.8-0.5,47.6-0.6c6.6,0,16.6-0.2,21.3-0.2
					c8.7-0.1,16.5,0.1,24-0.2c4.1-0.2-0.8-0.5-2.6-0.5c0-0.3,20.5-1.4,23.7-1.5c10-0.3,27.8,0.2,35.3-0.6c-4-0.5-44.9-0.4-51.3-0.4
					c-17.8-0.1-33.7,0-50.1-0.2c-30.7-0.4-59.9-0.5-90.4-1c-50.6-0.8-102.1-2-155.3-2.5c-60.2-0.6-122.3-1.1-183.1-1.4
					c-67.7-0.4-140.1-1.2-209.7-1.3c-98-0.1-191.5,0.1-286.3,0.2c-60.9,0.1-131.4-0.1-192,0.7c-116.1,1.6-238.1,1.3-354.4,3.5
					c-17.8,0.3-112.8,2.7-76,5.2c5.6,0.4,16.5,0.3,20.3,0.6c2.8,0.3,11.3,1.9,10.7,2.4c-0.9,0.8,4.1,0.4-2.8,1.2
					c-1.8,0.2-15.8-0.3-17.4,0c-6.1,1,18.7,0.5,23.7,0.5c0,1.2-24.4,0.3-28.1,1.1c-0.5,0.1,53.6-0.5,48.5,1.1
					c-3,0.9-24.8-0.5-29.5,0.4c-0.7,0.1,23.6,0.5,25.7,0.4c-0.3,0.2-44.7,0.5-49.8,0.5c-1,0.4,7.3,0.6,9.5,0.8
					c-1.3,1.4-34-0.5-23.2,1.7c7.4,1.5,24.9,0.7,35,1.4c-8,1.2-7.7,0.3-6.2,1.9c0.7,0.7,14.2,0.2,2.3,1.2
					c-5.7,0.5-30.9,0.5-39.9,0.5c-14.4,0-29.9-0.4-41.5,0.4c-1.7,0.1-7.5,0.7-8.2,0.9c-1.4,0.3-0.9,1.7,2.3,2
					c4.6,0.4,14-0.1,17.8,0.2c9.3,0.8-0.7,1.5,3.7,2.2c2.3,0.4,14.8,1.6,17.7,2c2.1,0.3,7.8,0.8,10.8,1.3c4.1,0.6,2.6,1.1,7.8,1.6
					c9.3,0.9,23.5,1,33.7,1.8c7.7,0.6,9.5,1,18.6,1.7c11.4,0.9-3.4,0.9,18.4,1.1c-0.1,0,3.4-0.5,4-0.5c9.6,0.1,57.2,1,56.2,1.1
					c2.7,0.4,9.4,0,9.4-0.4c11.6,0,22.2,0.6,34.3,0.7c5.3,0.1,9.4-0.2,16.8,0.3c3.3-0.4,23.6,0.2,29.5,0.2c11.5,0,44.1,0.6,53-0.2
					c-13.1,1.3,32.1,0.6,30.1,0.6c9.5-0.1,43.6-0.4,46.1,0.1c6.3-0.6,47.1-0.6,57.1-0.8c15.3-0.2,31-0.1,42.7-0.3
					c20.6-0.3,39.7,0,56.8,0.2c10.8,0.1,37.5,0.2,45.4-0.3c11.2-0.6,0.5-0.1,12.7,0c11.9,0.1,16.8,0,26.8,0
					c32.4-0.2,70.8-0.2,100.1-0.2c36.7,0,81.1,0.3,118.5,0.2c18.5,0,31.5-0.2,48.5,0c17.9,0.2,36.9-0.3,53.9-0.2
					c92.9,0.1,188.2,0.2,290.4-0.3c45.1-0.2,106.9,0,150.3,0c14.6,0,140.7,0.5,140.7,0c0-0.2-31.7-0.5-33.6-0.5
					c-5.6,0-13.4,0.2-24.2,0c-9.5-0.1-20.5-0.2-30-0.2c-4.5,0-14.1,0.2-20,0.1c-4-0.1-8.8-0.4-11.6-0.5c-4.2-0.1-4.8,0.6-8.7,0.5
					c0.6-0.2-0.2-0.4-2.4-0.5c1.8-0.9,102.2-0.3,109-0.2c5.4,0,11-0.2,17.5-0.2c11.2,0,15.5,0,27.6,0.1c23.6,0.2,49.2,0,76.8-0.1
					c4.1,0,80.8-2.1,66.4-3.2c-7.2,0-10.3,0-17.7,0C1128.4,267,1149.1,261.5,1147.4,261.5z"/>
				<path id="XMLID_94_" class="st6" d="M993.3,272.4c-9.6,0-11.1,0.5,2.4,0.5C996.6,272.7,995.8,272.5,993.3,272.4
					C992.6,272.4,994.6,272.4,993.3,272.4z"/>
				<path id="XMLID_93_" class="st6" d="M1015.9,272.7c-2-0.2-13.7-0.6-15.1-0.2C998.2,273.3,1023.2,273.3,1015.9,272.7z"/>
				<path id="XMLID_92_" class="st6" d="M1023,272.2c-5.2,0-5.9,0-5.9,0.5C1018.7,272.7,1026,272.5,1023,272.2
					C1021.6,272.2,1023.3,272.2,1023,272.2z"/>
				<path id="XMLID_91_" class="st6" d="M1051.5,272.4c-4-0.4-17.9-0.6-17.9,0.2c-0.1,0,31.9,0.6,28-0.2
					C1058.5,272.4,1055.2,272.3,1051.5,272.4C1050.7,272.4,1054.2,272.4,1051.5,272.4z"/>
				<path id="XMLID_90_" class="st6" d="M-512.1,249.7C-510.3,249.4-514.1,250-512.1,249.7C-511.8,249.6-512.3,249.7-512.1,249.7z"
					/>
				<path id="XMLID_89_" class="st6" d="M426.5,232.8C426.2,232.8,426.3,232.8,426.5,232.8L426.5,232.8z"/>
				<path id="XMLID_88_" class="st6" d="M1030.9,269.4C1030.6,269.4,1030.7,269.4,1030.9,269.4L1030.9,269.4z"/>
				<path id="XMLID_87_" class="st6" d="M49.6,271.7C49.4,271.7,49.4,271.7,49.6,271.7L49.6,271.7z"/>
				<path id="XMLID_86_" class="st6" d="M770.2,270.2C769.9,270.2,770,270.2,770.2,270.2L770.2,270.2z"/>
			</g>
		</g>
		<g id="XMLID_653_">
			<g>
				<path id="XMLID_10_" class="st7" d="M-696,229.9c8,0,17,0.7,24.2,0.7c0.5,0.1-15.3,0.4-7.6,0.8c7.5,0.4,34.7,0.2,44.4,0.3
					c5.4,0.1,45.4,0.4,45,0.8c-2.3,1.7-87.3-0.2-95.5,0.7c9.7,0.8,28,0.5,42,0.5c0,0.8,7.6,0.1,14,0.6c-2,0.1-2.9,0.2-2.7,0.3
					c56,0,109.9,0.4,164.1,0.9c25.1,0.2,35.8,2,64.1,2.4c58.5,0.9,116.3,1.7,170,2c29.5,0.1,61.3,0.5,88.4,0.4
					c34.7-0.2,76.4-0.4,115.2-0.2c25.9,0.1,56.1-0.2,84.8-0.3c25.5,0,60,0,87.3-0.6c12.4,1,30.2,0.1,40.7,0.1
					c19.3,0,30.9,0.1,49.8-0.1c25.8-0.3,59.3,0.2,84.7,0c53.9-0.5,108.3,0.3,166.9-0.1c18.2-0.1,43.1-0.4,69-0.6
					c18.3-0.1,29.2-0.3,44.3-0.4c17.1-0.2,35.2-0.3,52.3-0.5c120.1-1.7,243.9-0.1,365.3-0.8c27.2-0.2,53.8-0.2,80.1-0.4
					c17.2-0.2,46.1-0.2,61.9-0.8c31.8-1.2,0-2.6-12.3-3.9c1.9-0.1,8.2-0.4,8.5-0.6c2.4-1.2-6.6-0.3,4.7-1.1
					c15.4-1.1,24.4-0.2,15.1-2.3c-1.1-0.2-11.8-1.6-10.7-1.9c1-0.3,9.5-0.7,9.2-0.6c0.6-0.2,6.6-0.2,7.2-0.3
					c4.2-0.7-6.9-0.8-8.4-1.3c-3.1-1-2.7-1-5.7-1.7c-0.5-0.1-9.9-1.9-8.9-1.8c-2.3-0.3-13.9-1.3-13.8-1.5c0.4-1-1.6-0.1,10.3-0.3
					c10.8-0.1,28.2,1,37.4,0.1c7.9-0.8-4.8-1.1-8-1.7c-4.7-0.7-13.5-1.5-14.2-2.4c-0.1-0.2,9.6-1.2,8.4-1.6
					c-2.1-0.7-12.3-0.9-18.1-1.3c-24-1.6-43-2.3-74.4-2.6c-18.6-0.2-38.4-0.3-56.3-0.7c-6.3-0.1-1.4-0.7-7.9-0.8
					c-3.5-0.1-34.9,0-37,0c-18.4,0.2-31.7,0.2-57.1,0c-13.6-0.1-33.4-0.6-47.7-0.7c-20.2-0.1-52.8,0.1-77.6,0
					c-4.1,0-17.2,0.1-20.6,0c0.8,0-14.5-0.5-10.6-0.5c4.4,0-23.6,0-11.2,0.3c-8.4-0.2-1.2,0.3-12.6-0.9c-5.1,0.1-7.5,0.4-7.3,0.7
					c-4.2,0-12.4-0.9-19.2-0.9c-12.5,0-22.1,2.4-40.4,1c6.8-0.5,15.8-0.7,8.6-1.4c-2.2-0.2-27,0.3-31,0.2c-23.4-0.2-30-1.9-32.5,0.1
					c-0.4,0.3,18.6,0.1,5.2,0.8c-9.9,0.5-7.5,0.3-15.1-0.4c-10.8-1-2.2-1.1-16-1.3c-1.3,0-18,0.2-23.6,0.2c0.1,0-4.9-0.8-7.8-0.9
					c-3.6,0-11.9,0.4-14.8,0.7c-5.4,0.4,0.9,1.5-8.5,1c-1.8-0.1,0.9-1,2.4-0.8c-1.5-0.1-1.1-0.9-2.4-1c-6.1,0-12.2,0-18.3,0
					c-4.4,0.6-8.7,0.6-12.8-0.1c-7.7,0-10.4-0.4-19.9,0.2c2.8,0.4,16.2,1.4-2.8,1.4c-2.6-0.8,7-0.7-6.4-1.5
					c-7.4-0.4-16.8-0.9-25.9-0.2c-9.4-0.5-4.1-0.5-15.2-0.3c-2.7,0.1-14.2,0.8-17.6,0.7c0-1.5-41.1-0.8-48.1-0.8
					c-4.7,0-29.5-0.3-43.8-0.3c-40.1-0.1-87.5,0.5-124.5,0.7c-82.3,0.3-163.5,1.5-240.4,3c-42.1,0.8-84.4,1.1-127.7,1.8
					c-18.5,0.3-40.5,0.7-60.4,0.8c-19.1,0.2-41.5,0.1-59.8,0.5c-12.8,0.3-19.1,0.8-30.8,1c-6.4,0.1-4.7,0-10.6,0.2
					c-6.2,0.2-2.7-0.7-13.5-0.2c-4.1,0.2,1.5,0.8-3.5,0.9c-21,0.5-42.9,1-63,1.3c-35.8,0.6-63.7,0.6-92.2,1.5
					c-9.7,0.3-21.7,0-35.6,0.3c-1.5,0-14.7,0.7-15,0.7c-4.5,0.4,6.2,0.5,3.6,0.8c-6.1,0.6-15.6,0.6-22,0c2.8-0.1,3.7-0.3,2.8-0.5
					c-34.1,0-6.6,0.2-9,0.6c-7.6,1.1-28.4-0.8-17.4,1.2c1.5,0.3,15.5-0.1,15.1,0.4c-0.4,0.6-16.5,0.6-16.6,0.6c0,0,7.2,0.3,8.1,0.3
					c0.7,0-11.3,0.3-14.1,0.4c0.6,0-10.2-0.2-9.6-0.2c-10.1,0.4,7.2,0.4,6.8,0.4c0,1.9-1.1,0.1-8.4,1c20.2,1.7-51.8,0.5-48.2,1.4
					c-0.7,0.3,27.7,0.4,29.8,0.4c8.8,0.1,24.5,0,32.4,0.2c6.3,0.2,3.2,0.8,8.2,1.1c3.2,0.2,14.4,0.2,17.3,0.2
					c0.9,0.2-61.6,1.4-70.7,2.4c-10,1.1,3.1,0.6,1.9,1.1c-2.5,1-7.2,0.3-18.5,1.2c3.7,0.3,13.9-0.1,13.9,0.6c-13.2,0-11,1-19.3,1.2
					c-6.6,0.2-36.5-0.4-39.9,0C-698.7,229.7-697.3,229.8-696,229.9C-695.1,229.9-697.3,229.8-696,229.9z"/>
			</g>
		</g>
		<g id="XMLID_337_">
			<g>
				<path id="XMLID_42_" class="st8" d="M-700,202.7c15.1,0,37.1-0.4,50.6,0.1c11.7,0.4,8,0.7,21.3,0.7c3.4,1.8,49.6-0.7,56.6,0.8
					c0.6,0.1-18.9,0.9-20.3,1c4.5-0.2,32.2-0.1,38.5-0.1c13.2,0,24,0.4,27.7,0.9c0.2,0,13.8,0.4,16.2,0.5c10.5,0.4-8.3,0.4,17.4,0.6
					c4.7,0,9.3,0,14,0c1.2,0,1.8-0.1,1.8-0.2c35.3-0.2,69.6-0.2,102.6,0.2c47.6,0.6,92.3,1,139.2,1.7c115.3,1.7,232.5,1.8,355.5,2.5
					c67.7,0.4,155.2-0.2,228.5-0.5c78.4-0.3,158.4-1.7,237.9-1c58.6,0.5,118.3,1.6,179.7,1.9c57.6,0.4,114,1.8,172.9,0.7
					c13.5-0.3,29.4-0.8,42.6-1c8.5-0.1,21.4,0.1,29.7-0.3c8.7-0.4,12.4-1,20.3-1.5c6.5-0.4,21.7-0.3,25.8-0.7
					c7.1-0.7,1.6-1.5,3.7-2.1c-0.7,0.2,4.2-1.4,3.6-1.1c1.2-0.5,9.1-0.8,7.8-1.4c-2.1-1-38.4-1.7-35.2-2.8c-4.2,0,14.3,0.1,11.4-0.4
					c-4.6-0.8-31-1.2-39.9-1.3c1.7-0.9,7.5-0.3,14.4-0.6c-14.9-1.7,49-1.2,55.3-1.1c3.2,0,50,0,48.5-0.4c-1.3-0.3-13.2-0.2-11.5-0.8
					c9.5,0,43.5,0.3,49.7-0.4c-3-0.6-34.8-0.7-30-1.4c7.7-1.2,49.4,0.7,57.7-0.7c5-0.8-6.4-1.5-13.2-2.1c-2.8-0.2-7.8-0.6-10.8-0.9
					c-3.6-0.3-13.1-0.2-15.2-0.6c6.2-1.4,39.6,0.3,44.4-1c-4.2-0.5-33.9-0.5-41.7-0.6c-15.8-0.3-25.4-0.6-40.1-1
					c-16.2-0.4-32.5-1.2-49.6-1.7c-55.9-1.8-110.6-2.8-170.3-3.5c-22.6-0.3-62.4,0-80.8-1.7c-9.9-0.9-11.5-2.4-23.3-3.2
					c-10.6-0.7-22.5-1-33.7-1.3c-39.1-1.1-81.2-1.2-122.7-1.4c-42.8-0.2-82.7-0.8-122.6-1c-107.1-0.6-201.7-1.8-310.4-1.8
					c0-1.2,7.9-1.1-6-1.7c-6.5-0.3-14.2-0.2-22.5-0.2c-8.8-0.1-11.8-0.2-21.3,0c-6.3,0.1-11.6,0.2-18.1,0.2
					c-8.3,0.1-16,0.3-27.8,0.3c-13.1-0.1-21.6,0-38.6,0c-39,0-74.9-0.3-117.2-0.2c-25.9,0-49.1,0.7-73.5,1.4
					c-10.2,0.3-18.3,0.7-28.7,0.9c-12.5,0.2-19.1,0.5-28.6,0.9c-41,1.7-99.7,0.1-145.2,0.1c-40.4,0-78.8,0-117.2,0.5
					c-27.3,0.3-52.2,0.8-78.4,1.4c-9.7,0.2-21.1,0.4-30,0.9c-2.3,0.1-9.5,0.1-11.2,0.4c-6.2,1.2,4.8,0.8,10.7,1.2
					c0,0.7-38,1.9-41.5,2.1c-8.4,0.4-25.1,1.5-34.5,2.3c0.8,0.8,20.1,0.1,26.1,0.3c11.7,0.5-3.7,0.9-2.2,1.2
					c2.1,0.4,8.5-0.1,11.5,0.3c-8.2,0.9-28.3,0.5-32.6,1.4c-0.7,0.2,18.2,0.4,18.2,0.4c8.7,1-5,0.9-5.1,1.2
					c-0.3,1.1-5.7,0.5,7.7,0.5c6.7,0,66.4-0.7,70,0c7.2,1.4-20.1,1.7-28.8,1.9c-15.7,0.3-24.1,0.4-37.3,0.8
					c-10.3,0.3-13.1,0.7-20.4,1.2c-7.6,0.5-24.7,0.8-30.3,1.4c-3.6,0.4,23.4-0.1,25.6-0.1c0,1.1-30.6,1.6-30.4,1.7
					c2.9,0.5,3.4,1.2-0.4,2c-7.3,1.5-14.9,0.8-27.9,1.6c-17.4,1.1,0.4,1.2-0.5,2.3C-683,201.4-698,202.7-700,202.7
					C-693.7,202.7-700.4,202.7-700,202.7z"/>
				<path id="XMLID_41_" class="st8" d="M-636.2,183.5c3.7-0.4,4-0.5-1.4-0.5C-638.3,183.2-637.8,183.4-636.2,183.5
					C-635.1,183.4-636.6,183.4-636.2,183.5z"/>
				<path id="XMLID_40_" class="st8" d="M502.9,205.2C503.2,205.2,503.1,205.2,502.9,205.2L502.9,205.2z"/>
				<path id="XMLID_39_" class="st8" d="M438.9,192.5C439.2,192.5,439.1,192.5,438.9,192.5L438.9,192.5z"/>
			</g>
		</g>
		<g id="XMLID_444_">
			<g>
				<path id="XMLID_30_" class="st9" d="M1192.7,147.2c-11.7-2.1-37.6-1.9-58.7-2.2c-37.6-0.5-83.3-0.8-119.2-0.6
					c-40,0.2-95.3,0.3-134.8,0.2c-67.1-0.3-127.9,0.3-198.5,0.2c-59-0.1-110.1-0.6-177.5-1c-147.1-1.1-297.4,0-447.2,0.6
					c-177.4,0.7-358,2.2-538.1,2.7c-22.4,0.1-91.8-1.1-96.8,2c-3.5,2.1,10.2,0.2,20.9,1.7c11.9,1.6-9.5,1.6-17.6,2
					c-32,1.4,2.2,4.1-26.1,5.3c-11.2,0.5-25.8,0.2-25.3,2c0.3,1.2,14.1,1.1,14.1,2.1c-5.3-0.3-9.1-0.2-11.6,0.1
					c4.5,0.5,9.3,0.5,14.3,0.7c4.4,0.2,11.9,0.2,16.2,0.4c6.8,0.4,8.4,0.9,15.3,1.3c19.4,0.9,40.3,0.6,57.9,1.8
					c2.8,0.2,7.3,0.2,9.6,0.4c5.4,0.5,3.5,1.1,10.8,1.6c11.2,0.7,30.5-0.1,41.1,0.6c5.7,0.4,5.9,1.4,9.5,1.9
					c4.7,0.7,11.4,1.3,18.4,1.9c25.5,1.9,59.8,2.9,91.4,2.9c13.7,0,34.5,0,48.6,0.6c7,0.3,14.4,0.7,22.3,1
					c33.6,1.2,70.3,1.4,109.2,1.4c35.3,0.1,69.8-0.1,102.2-1c21.4-0.6,45.4-1.3,69.2-1.5c69.7-0.4,142.7-0.5,212.3,0.1
					c22.3,0.2,45.6-0.1,66.6,0.3c11.6,0.2,21.4,0.7,33.5,0.8c33.5,0.5,65.2,0.2,95.8-0.4c52.2-1,112.6-1.2,164.7-1.7
					c27.5-0.3,59.5,0.8,90.1,0.6c29.5-0.2,65.6-0.5,97-0.8c25.3-0.3,48.2-0.9,72.7-1.4c14.3-0.3,52.5-0.7,59-2.2
					c-0.4,0.1-11.1-0.4-11.2-0.9c-0.8,0,15.4-0.5,15.4-0.5c16.2-0.2,23.3-0.2,33.5-0.9c11.5-0.8,8.9-1.1,24.7-1.5
					c5.2-0.1,40.5-0.3,42.3-0.6c5.5-1-18.6-1-20.9-1.2c4.7-0.8,45.2-0.5,16.6-1.4c-7.1-0.2-18.7-0.3-27.2-0.3
					c-2.4,0-21.3,0.5-23.7,0.2c-11.3-1.2,12.2-1.1,14.2-1.5c5.9-1.1-5.2-1.6-0.9-2.2c3.5-0.5,25.2-0.1,31.7-0.2
					c13.1-0.1,68,0.5,77-1c1.4-0.2-45-0.7-50.4-0.7c-23.9-0.2-51.4-0.4-74.7-0.9c1-0.3,8.7-0.8,10.7-1c16.8-1.2,5.4,0,21.1-0.2
					c4-0.1,11.8-0.4,15.8-0.5c1.3,0,11.6,0,10.5,0c12.1-0.2,22.8-0.2,26.4-1.2c3.5-0.9-6.9-1.7,6-2.5c3.6-0.2,14.5-0.1,15.9-0.2
					c4.1-0.3,5.7-1,8.2-1.1c7.9-0.6,17.4-1.7,29.3-2C1113.3,148.6,1192.5,149.7,1192.7,147.2C1191.8,147,1192.7,147.2,1192.7,147.2z
					"/>
				<path id="XMLID_29_" class="st9" d="M1199.8,146.2c-2.9-0.3-6,0-3.4,0.4C1197,146.5,1200.8,146.3,1199.8,146.2z"/>
				<path id="XMLID_28_" class="st9" d="M385.7,165.7C385.8,165.6,385.7,165.6,385.7,165.7L385.7,165.7z"/>
			</g>
		</g>
	</g>
</g>
</svg>
